  <svg xmlns="http://www.w3.org/2000/svg" xmlns:xlink="http://www.w3.org/1999/xlink" width="60" height="31.036" viewBox="0 0 60 31.036">
            <defs>
              <linearGradient id="linear-gradient" x1="-0.258" y1="-0.123" x2="1.24" y2="1.192" gradientUnits="objectBoundingBox">
                <stop offset="0" stop-color="#f9d388"/>
                <stop offset="0.868" stop-color="#ffa131"/>
              </linearGradient>
              <linearGradient id="linear-gradient-2" x1="0.036" y1="0.16" x2="0.762" y2="0.849" gradientUnits="objectBoundingBox">
                <stop offset="0" stop-color="#f67764"/>
                <stop offset="1" stop-color="#ea3628"/>
              </linearGradient>
              <linearGradient id="linear-gradient-3" x1="0.054" y1="-0.045" x2="0.803" y2="0.871" gradientUnits="objectBoundingBox">
                <stop offset="0" stop-color="#a3edcc"/>
                <stop offset="1" stop-color="#67e8a7"/>
              </linearGradient>
            </defs>
            <g id="nav" transform="translate(-158 -27)">
              <g id="logo_maxspace" transform="translate(158 27.002)">
                <g id="그룹_3" data-name="그룹 3" transform="translate(0 -0.002)">
                  <g id="그룹_1" data-name="그룹 1">
                    <path id="패스_4" data-name="패스 4" d="M17.217,0a5.672,5.672,0,0,0-5.876,5.668A5.672,5.672,0,0,0,5.465,0,5.76,5.76,0,0,0,0,5.805V17.213a2.445,2.445,0,0,0,2.444,2.444h17.8a2.445,2.445,0,0,0,2.444-2.444V5.805A5.76,5.76,0,0,0,17.217,0Z" transform="translate(0 0.002)" fill="url(#linear-gradient)"/>
                  </g>
                  <g id="그룹_2" data-name="그룹 2" transform="translate(8.359 13.783)">
                    <circle id="Winter_Neva" data-name="Winter Neva" cx="0.916" cy="0.916" r="0.916" transform="translate(4.022)" fill="#d5a8e1"/>
                    <circle id="타원_2" data-name="타원 2" cx="0.916" cy="0.916" r="0.916" fill="#d5a8e1"/>
                  </g>
                </g>
                <g id="그룹_5" data-name="그룹 5" transform="translate(26.636 3.853)">
                  <path id="패스_5" data-name="패스 5" d="M90.217,15.162l-3.551,6.269a4.767,4.767,0,0,0,4.146,7.116h7.1a4.767,4.767,0,0,0,4.146-7.116l-3.551-6.272A4.768,4.768,0,0,0,90.217,15.162Z" transform="translate(-86.04 -12.744)" fill="url(#linear-gradient-2)"/>
                  <g id="그룹_4" data-name="그룹 4" transform="translate(5.801 10.723)">
                    <circle id="타원_3" data-name="타원 3" cx="0.814" cy="0.814" r="0.814" transform="translate(3.563)" fill="#d5a8e1"/>
                    <circle id="타원_4" data-name="타원 4" cx="0.814" cy="0.814" r="0.814" fill="#d5a8e1"/>
                  </g>
                </g>
                <g id="그룹_8" data-name="그룹 8" transform="translate(47.065 6.918)">
                  <g id="그룹_6" data-name="그룹 6">
                    <path id="패스_6" data-name="패스 6" d="M160.676,23.01,158.783,24.9l-1.893-1.893A2.68,2.68,0,0,0,153.1,26.8l1.893,1.893L153.1,30.586a2.68,2.68,0,0,0,3.789,3.789l1.893-1.893,1.893,1.893a2.68,2.68,0,0,0,3.789-3.789l-1.893-1.893,1.893-1.893a2.68,2.68,0,0,0-3.789-3.789Z" transform="translate(-152.315 -22.225)" fill="url(#linear-gradient-3)"/>
                  </g>
                  <g id="그룹_7" data-name="그룹 7" transform="translate(4.184 7.348)">
                    <circle id="타원_5" data-name="타원 5" cx="0.693" cy="0.693" r="0.693" transform="translate(3.033)" fill="#d5a8e1"/>
                    <circle id="타원_6" data-name="타원 6" cx="0.693" cy="0.693" r="0.693" fill="#d5a8e1"/>
                  </g>
                </g>
                <g id="그룹_9" data-name="그룹 9" transform="translate(0.68 22.46)">
                  <path id="패스_7" data-name="패스 7" d="M7.034,72.975a2.313,2.313,0,0,1,1.34-.375,1.947,1.947,0,0,1,1.385.569,2.041,2.041,0,0,1,.6,1.542V78.57H9.941V74.711a1.7,1.7,0,0,0-.493-1.249,1.607,1.607,0,0,0-1.186-.5,1.728,1.728,0,0,0-1.231.517,1.618,1.618,0,0,0-.538,1.2V78.57H6.079V74.687a1.677,1.677,0,0,0-.493-1.21,1.593,1.593,0,0,0-1.192-.511,1.675,1.675,0,0,0-1.219.517,1.652,1.652,0,0,0-.517,1.2v3.886H2.25V72.742h.414v.817a2.159,2.159,0,0,1,.771-.674A2.15,2.15,0,0,1,4.5,72.6a1.729,1.729,0,0,1,1.055.381,2.188,2.188,0,0,1,.738.992A1.855,1.855,0,0,1,7.034,72.975Z" transform="translate(-2.25 -72.588)"/>
                  <path id="패스_8" data-name="패스 8" d="M39.259,72.728v5.828h-.414V77.1a2.713,2.713,0,0,1-1.089,1.164A3.015,3.015,0,0,1,36.2,78.7a2.964,2.964,0,0,1-2.174-.9,3.016,3.016,0,0,1,0-4.313,2.986,2.986,0,0,1,2.174-.9,3.118,3.118,0,0,1,1.588.442,2.4,2.4,0,0,1,1.055,1.164V72.722h.414Zm-5.722,2.928a2.716,2.716,0,0,0,2.686,2.68,2.527,2.527,0,0,0,1.872-.8,2.687,2.687,0,0,0-.006-3.786,2.588,2.588,0,0,0-3.756.006A2.624,2.624,0,0,0,33.537,75.656Z" transform="translate(-23.603 -72.574)"/>
                  <path id="패스_9" data-name="패스 9" d="M59.624,75.362,61.968,78.9H61.49l-2.1-3.173L57.3,78.9H56.89l2.292-3.5L57.64,73.07h.478l1.294,1.969,1.294-1.969h.414Z" transform="translate(-40.051 -72.916)"/>
                  <path id="패스_10" data-name="패스 10" d="M92.516,72.923a.887.887,0,0,0-.6.221.693.693,0,0,0-.26.544.809.809,0,0,0,.29.6,3.5,3.5,0,0,0,.7.5c.272.151.547.315.823.487a2.521,2.521,0,0,1,.7.659,1.533,1.533,0,0,1,.29.919,1.714,1.714,0,0,1-.578,1.3,1.964,1.964,0,0,1-1.391.538,2.1,2.1,0,0,1-.965-.227,1.461,1.461,0,0,1-.653-.6v-.623a1.713,1.713,0,0,0,2.713.674,1.228,1.228,0,0,0,.46-.925,1.3,1.3,0,0,0-.29-.862,2.7,2.7,0,0,0-.7-.6l-.823-.487a2.681,2.681,0,0,1-.7-.584,1.2,1.2,0,0,1-.29-.8.992.992,0,0,1,.369-.777,1.4,1.4,0,0,1,.953-.318,1.306,1.306,0,0,1,1,.454v.532A1.225,1.225,0,0,0,92.516,72.923Z" transform="translate(-63.58 -72.56)"/>
                  <path id="패스_11" data-name="패스 11" d="M106.82,81.162v-8.42h.414v1.424a2.648,2.648,0,0,1,1.095-1.14,3.075,3.075,0,0,1,1.548-.426,3.077,3.077,0,0,1,3.085,3.058,2.934,2.934,0,0,1-.9,2.156,2.977,2.977,0,0,1-2.184.9,3.02,3.02,0,0,1-1.515-.42,2.884,2.884,0,0,1-1.128-1.134v4Zm.39-5.492a2.716,2.716,0,0,0,2.686,2.68,2.527,2.527,0,0,0,1.872-.8,2.687,2.687,0,0,0-.006-3.786,2.588,2.588,0,0,0-3.756.006A2.624,2.624,0,0,0,107.21,75.67Z" transform="translate(-74.581 -72.588)"/>
                  <path id="패스_12" data-name="패스 12" d="M136.259,72.728v5.828h-.414V77.1a2.713,2.713,0,0,1-1.089,1.164,3.015,3.015,0,0,1-1.555.426,2.964,2.964,0,0,1-2.174-.9,3.016,3.016,0,0,1,0-4.313,2.986,2.986,0,0,1,2.174-.9,3.118,3.118,0,0,1,1.588.442,2.4,2.4,0,0,1,1.055,1.164V72.722h.414Zm-5.725,2.928a2.716,2.716,0,0,0,2.686,2.68,2.527,2.527,0,0,0,1.872-.8,2.687,2.687,0,0,0-.006-3.786,2.588,2.588,0,0,0-3.756.006A2.624,2.624,0,0,0,130.534,75.656Z" transform="translate(-90.698 -72.574)"/>
                  <path id="패스_13" data-name="패스 13" d="M157.628,78.8h-.118a2.875,2.875,0,0,1-2.138-.919,2.993,2.993,0,0,1-.892-2.156,2.912,2.912,0,0,1,.907-2.138,3.045,3.045,0,0,1,2.229-.9,2.965,2.965,0,0,1,2.253,1v.659a3.04,3.04,0,0,0-1.016-.947,2.692,2.692,0,1,0,0,4.682,2.933,2.933,0,0,0,1.016-.959v.674A2.887,2.887,0,0,1,157.628,78.8Z" transform="translate(-107.441 -72.644)"/>
                  <path id="패스_14" data-name="패스 14" d="M178.256,78.762h-.118a2.922,2.922,0,0,1-2.144-.925,2.981,2.981,0,0,1-.913-2.156,2.9,2.9,0,0,1,.907-2.129,3.063,3.063,0,0,1,2.241-.9,2.984,2.984,0,0,1,2.292,1.062l-4.068,4.016a2.642,2.642,0,0,0,1.618.674,2.707,2.707,0,0,0,1.391-.357,3.032,3.032,0,0,0,1.016-.953v.659A2.894,2.894,0,0,1,178.256,78.762Zm-.136-5.752a2.721,2.721,0,0,0-2.622,2.628,2.667,2.667,0,0,0,.687,1.815l3.768-3.744A2.714,2.714,0,0,0,178.119,73.01Z" transform="translate(-121.811 -72.623)"/>
                </g>
              </g>
            </g>
          </svg>